<?xml version="1.0" encoding="UTF-8"?>
<svg xmlns="http://www.w3.org/2000/svg" xmlns:xlink="http://www.w3.org/1999/xlink" width="24px" height="24px" viewBox="0 0 24 24" version="1.1">
<g id="surface1">
<path style=" stroke:none;fill-rule:nonzero;fill:rgb(100%,85.882353%,11.764706%);fill-opacity:1;" d="M 20.457031 5.308594 C 23.355469 12.390625 20.457031 16.199219 18 18.300781 C 18.601562 20.398438 16.207031 20.832031 15.300781 19.800781 C 12.625 20.722656 7.191406 20.691406 3.300781 16.800781 C 1.199219 14.699219 2.839844 10.027344 8.398438 6.898438 C 13.199219 4.199219 18 2.699219 20.457031 5.308594 Z M 20.457031 5.308594 "/>
<path style="fill-rule:nonzero;fill:rgb(100%,100%,100%);fill-opacity:1;stroke-width:1;stroke-linecap:butt;stroke-linejoin:miter;stroke:rgb(100%,85.882353%,11.764706%);stroke-opacity:1;stroke-miterlimit:4;" d="M 13.997396 11.497396 C 20.846354 7.005208 29.023438 5.117188 32.369792 8.027344 C 37.5 12.5 21.497396 22.610677 15.501302 25 C 8.997396 27.584635 12.5 33.502604 8.997396 33.502604 C 6.002604 33.502604 6.497396 29.498698 3.815104 25.748698 C 2.233073 23.535156 6.158854 16.647135 13.997396 11.497396 Z M 13.997396 11.497396 " transform="matrix(0.6,0,0,0.6,0,0)"/>
<path style=" stroke:none;fill-rule:nonzero;fill:rgb(100%,90.196078%,0%);fill-opacity:1;" d="M 17.121094 5.261719 C 19.90625 6.011719 16.902344 8.679688 14.539062 10.386719 C 12.300781 12 10.574219 12.910156 9.785156 13.28125 C 9.566406 13.386719 8.816406 11.929688 8.816406 12.683594 C 8.816406 12.933594 8.394531 14.027344 8.253906 14.078125 C 7.4375 14.386719 5.722656 14.851562 4.753906 14.851562 C 2.660156 14.851562 3.601562 12 6.5625 9.378906 C 7.097656 8.90625 7.449219 8.992188 7.933594 8.992188 C 7.609375 8.527344 7.613281 8.441406 8.171875 8.066406 C 10.675781 6.382812 13.800781 5.261719 15.128906 5.050781 C 15.347656 5.058594 15.621094 5.261719 15.621094 5.429688 C 15.863281 5.34375 16.875 5.195312 17.121094 5.261719 Z M 17.121094 5.261719 "/>
<path style=" stroke:none;fill-rule:nonzero;fill:rgb(100%,100%,100%);fill-opacity:1;" d="M 8.578125 9.894531 C 9.167969 9.445312 9.566406 9.289062 9.835938 8.378906 C 10.175781 8.449219 10.34375 8.332031 10.613281 7.957031 C 10.804688 8.238281 11.605469 8.324219 12.082031 8.378906 C 11.65625 8.648438 11.449219 8.890625 11.210938 9.640625 C 10.332031 9.277344 9.3125 9.460938 8.578125 9.894531 Z M 8.578125 9.894531 "/>
</g>
</svg>
