<?xml version="1.0" standalone="no"?>
<!DOCTYPE svg PUBLIC "-//W3C//DTD SVG 20010904//EN"
 "http://www.w3.org/TR/2001/REC-SVG-20010904/DTD/svg10.dtd">
<svg version="1.0" xmlns="http://www.w3.org/2000/svg"
 height="24px" width="24px" viewBox="0 0 225.000000 225.000000"

 preserveAspectRatio="xMidYMid meet">

<g transform="translate(0.000000,225.000000) scale(0.100000,-0.100000)"
 fill="#4263eb" stroke="none">
<path d="M992 2210 c-662 -83 -1102 -746 -917 -1383 113 -392 435 -689 835
-773 113 -23 324 -23 435 0 665 143 1041 839 794 1471 -130 334 -441 597 -789
669 -97 20 -266 27 -358 16z m381 -304 c98 -33 146 -57 222 -111 116 -83 223
-212 279 -338 53 -121 61 -162 61 -332 0 -149 -2 -166 -28 -247 -43 -131 -105
-229 -211 -333 -101 -100 -191 -156 -321 -202 -75 -26 -90 -28 -245 -28 -106
0 -180 5 -207 13 l-43 13 0 154 c0 85 2 155 4 155 2 0 25 -9 50 -19 24 -11 78
-24 118 -30 319 -44 601 202 601 524 0 295 -233 528 -528 528 -238 0 -443
-154 -509 -383 -19 -65 -19 -83 -10 -472 4 -192 3 -298 -4 -298 -20 0 -143
143 -186 215 -24 42 -57 115 -73 163 -26 81 -28 98 -28 247 0 170 8 211 61
332 77 173 237 336 406 412 54 25 116 44 203 65 11 3 85 3 165 2 125 -3 156
-7 223 -30z m-160 -542 c94 -32 167 -137 167 -239 0 -173 -176 -298 -338 -241
-97 34 -149 100 -163 206 -13 94 5 152 67 214 71 71 169 93 267 60z"/>
</g>
</svg>
